HIERARCHY
ROOT Hips
{
  OFFSET 3.13124 94.3669 -3.18751
  CHANNELS  6 Xposition Yposition Zposition Zrotation Xrotation Yrotation
  JOINT LeftUpLeg
  {
    OFFSET 8.64259 1.95398 -2.38835
    CHANNELS 3 Zrotation Xrotation Yrotation
    JOINT LeftLeg
    {
      OFFSET 43.7702 0 0
      CHANNELS 3 Zrotation Xrotation Yrotation
      JOINT LeftFoot
      {
        OFFSET 40.6238 0 0
        CHANNELS 3 Zrotation Xrotation Yrotation
        JOINT LeftToeBase
        {
          OFFSET 12.7242 0 0
          CHANNELS 3 Zrotation Xrotation Yrotation
          End Site
          {
            OFFSET 0 0 0
          }
        }
      }
    }
  }
  JOINT RightUpLeg
  {
    OFFSET -8.2249 1.95398 -2.59336
    CHANNELS 3 Zrotation Xrotation Yrotation
    JOINT RightLeg
    {
      OFFSET 43.5653 0 0
      CHANNELS 3 Zrotation Xrotation Yrotation
      JOINT RightFoot
      {
        OFFSET 40.6238 0 0
        CHANNELS 3 Zrotation Xrotation Yrotation
        JOINT RightToeBase
        {
          OFFSET 12.7242 0 0
          CHANNELS 3 Zrotation Xrotation Yrotation
          End Site
          {
            OFFSET 0 0 0
          }
        }
      }
    }
  }
  JOINT Spine
  {
    OFFSET 0.165834 0.87714 6.61349
    CHANNELS 3 Zrotation Xrotation Yrotation
    JOINT Spine1
    {
      OFFSET 7.38962 1.71661e-005 0
      CHANNELS 3 Zrotation Xrotation Yrotation
      JOINT Spine2
      {
        OFFSET 11.9445 1.14441e-005 0
        CHANNELS 3 Zrotation Xrotation Yrotation
        JOINT Spine3
        {
          OFFSET 14.7254 4.19617e-005 0
          CHANNELS 3 Zrotation Xrotation Yrotation
          JOINT Spine4
          {
            OFFSET 10.9679 0 0
            CHANNELS 3 Zrotation Xrotation Yrotation
            JOINT RightShoulder
            {
              OFFSET 2.46616 -1.6653 3.69651
              CHANNELS 3 Zrotation Xrotation Yrotation
              JOINT RightArm
              {
                OFFSET 13.0012 0 0
                CHANNELS 3 Zrotation Xrotation Yrotation
                JOINT RightForeArm
                {
                  OFFSET 28.7848 1.52588e-005 0
                  CHANNELS 3 Zrotation Xrotation Yrotation
                  JOINT RightHand
                  {
                    OFFSET 26.5688 1.52588e-005 0
                    CHANNELS 3 Zrotation Xrotation Yrotation
                    End Site
                    {
                      OFFSET 0 0 0
                    }
                  }
                }
              }
            }
            JOINT LeftShoulder
            {
              OFFSET 2.38034 -1.29275 -3.75231
              CHANNELS 3 Zrotation Xrotation Yrotation
              JOINT LeftArm
              {
                OFFSET 16.3182 6.10352e-005 0
                CHANNELS 3 Zrotation Xrotation Yrotation
                JOINT LeftForeArm
                {
                  OFFSET 27.0901 0 0
                  CHANNELS 3 Zrotation Xrotation Yrotation
                  JOINT LeftHand
                  {
                    OFFSET 24.5451 1.52588e-005 0
                    CHANNELS 3 Zrotation Xrotation Yrotation
                    End Site
                    {
                      OFFSET 0 0 0
                    }
                  }
                }
              }
            }
            JOINT Neck
            {
              OFFSET 5.0226 -0.0266342 0
              CHANNELS 3 Zrotation Xrotation Yrotation
              JOINT Head
              {
                OFFSET 6.69363 2.86102e-005 0
                CHANNELS 3 Zrotation Xrotation Yrotation
                End Site
                {
                  OFFSET 0 0 0
                }
              }
            }
          }
        }
      }
    }
  }
}
MOTION
Frames:	15
Frame Time:	0.0333333
4.57208 95.6232 -6.36237 -58.5978 -89.9979 -58.5958 -179.96 1.82805 89.9873 -7.47056 -0.136497 -0.00339389 62.6632 1.37365 0.695596 28.7808 5.44988e-006 1.52149e-006 179.947 1.80381 89.9696 -7.4111 0.0837718 -0.000942927 62.6358 -1.14226 -0.577455 28.7808 1.36314e-005 3.08957e-005 7.83582e-005 6.33278 -90.0013 14.1935 -0.00200485 -0.00348278 2.52251 -4.29582e-006 -0.00373155 -20.0127 0.00141709 -0.00163032 3.98875e-008 0.00140637 -0.00162502 101.149 -18.117 -84.7094 -3.22779 26.3286 -6.8048 -6.38924 -27.262 -9.24632 1.61452 0.0957579 1.22114 -78.6725 -21.1843 95.0012 16.9185 -51.5033 -6.65642 2.66804 51.3735 -7.35792 -0.854435 -0.0344763 0.790245 1.75722 0.00218925 -0.00372768 -7.41292 0.000830606 0.0025961 
4.5802 95.6246 -6.3775 -60.3536 -89.9668 -60.3241 -179.959 2.12909 89.9926 -8.03941 -0.288712 -0.00339392 62.8771 1.39715 0.716157 28.7808 5.44988e-006 1.52149e-006 179.955 1.63868 89.9922 -7.01356 0.102816 -0.000942928 62.4342 -1.09786 -0.547601 28.7808 1.36314e-005 3.08957e-005 0.00149369 6.33275 -90.019 14.1935 -0.00200485 -0.00348278 2.52251 -4.29582e-006 -0.00373155 -20.0127 0.00141709 -0.00163032 3.98875e-008 0.00140637 -0.00162502 101.174 -18.1849 -84.6895 -3.19214 26.5129 -6.31012 -6.99783 -27.5288 -10.4864 2.04085 0.129523 1.66623 -78.6552 -21.1292 95.0059 16.9577 -51.437 -6.53623 2.60189 51.212 -7.39493 -0.785642 -0.0344759 0.843898 1.8081 0.0338824 -0.063085 -7.44141 0.0141048 0.045185 
4.58611 95.6244 -6.38505 -92.6287 -89.9662 -92.6131 -179.967 1.90945 89.9791 -7.61462 -0.27496 -0.00339392 62.7085 1.41894 0.724082 28.7808 5.44988e-006 1.52149e-006 179.95 1.71762 89.9755 -7.2024 0.095589 -0.000942928 62.5318 -1.09417 -0.547492 28.7808 1.36314e-005 3.08957e-005 0.000600931 6.33277 -90.0078 14.1935 -0.00200485 -0.00348278 2.52251 -4.29582e-006 -0.00373155 -20.0127 0.00141709 -0.00163032 3.98875e-008 0.00140637 -0.00162502 101.147 -18.2618 -84.7266 -3.17696 26.3013 -6.89383 -6.34567 -27.2935 -9.145 1.54077 0.0929662 1.29715 -78.6657 -21.1183 94.9991 16.9541 -51.405 -6.50713 2.57635 51.1825 -7.3872 -0.807108 -0.0344763 0.793748 1.78356 0.0205489 -0.111993 -7.42035 0.0269572 0.0945988 
4.59411 95.6161 -6.39473 -116.294 -89.9405 -116.265 -179.958 2.07862 89.9858 -8.01053 -0.287466 -0.00339392 62.9001 1.42686 0.732405 28.7808 5.44988e-006 1.52149e-006 179.948 1.84252 89.9825 -7.49815 0.0678355 -0.000942927 62.6667 -1.10873 -0.558059 28.7808 1.36314e-005 3.08957e-005 0.000763568 6.33277 -90.0098 14.1935 -0.00200485 -0.00348278 2.52251 -4.29582e-006 -0.00373155 -20.0127 0.00141709 -0.00163032 3.98875e-008 0.00140637 -0.00162502 101.137 -18.2782 -84.7315 -3.06257 26.2463 -6.97631 -6.29148 -27.2508 -9.03687 1.43465 0.086815 1.27942 -78.6712 -21.1354 95.0187 16.9237 -51.4109 -6.55022 2.56963 51.1426 -7.37704 -0.810964 -0.0344763 0.793207 1.81584 0.0460242 -0.0645755 -7.47347 0.00853503 0.0137875 
4.59508 95.6309 -6.41292 -28.5616 -89.9673 -28.562 -179.985 1.84335 89.952 -7.36855 -0.325667 -0.00339393 62.5578 1.4335 0.729905 28.7808 5.44988e-006 1.52149e-006 179.942 1.66611 89.9544 -6.99644 0.118005 -0.000942928 62.412 -1.10331 -0.551059 28.7808 1.36314e-005 3.08957e-005 0.000525723 6.33278 -90.0069 14.1935 -0.00200485 -0.00348278 2.52251 -4.29582e-006 -0.00373155 -20.0127 0.00141709 -0.00163032 3.98875e-008 0.00140637 -0.00162502 101.212 -18.3066 -84.6684 -2.9876 26.3952 -6.58438 -6.80274 -27.3295 -10.1015 1.80029 0.115412 1.67186 -78.6291 -21.1684 94.982 16.9072 -51.3895 -6.58124 2.52185 51.1741 -7.34313 -0.820273 -0.0344764 0.778227 1.97227 0.00276468 -0.0387511 -7.57122 0.00894399 -0.00758976 
4.60639 95.6158 -6.42108 -131.484 -89.9634 -131.474 -179.974 1.96988 89.9546 -7.74062 -0.32481 -0.00339393 62.7686 1.45952 0.747864 28.7808 5.44988e-006 1.52149e-006 179.935 1.95751 89.9536 -7.70036 0.048936 -0.000942927 62.7465 -1.11901 -0.565734 28.7808 1.36314e-005 3.08957e-005 6.86623e-005 6.33278 -90.0011 14.1935 -0.00200485 -0.00348278 2.52251 -4.29582e-006 -0.00373155 -20.0127 0.00141709 -0.00163032 3.98875e-008 0.00140637 -0.00162502 101.181 -18.3633 -84.7101 -2.99013 26.2943 -6.8134 -6.5288 -27.3966 -9.4978 1.65648 0.100828 1.36601 -78.6542 -21.1275 94.9626 16.836 -51.4157 -6.63251 2.59867 51.2916 -7.29962 -0.929245 -0.0344777 0.601033 1.86259 0.00613274 -0.0912387 -7.44366 -0.00621074 0.0293821 
4.61038 95.6139 -6.43378 -107.745 -89.969 -107.719 -179.968 2.20766 89.9651 -8.17981 -0.343038 -0.00339394 62.9341 1.44692 0.745231 28.7808 5.44988e-006 1.52149e-006 179.939 1.89516 89.9684 -7.52301 0.0647807 -0.000942927 62.6596 -1.11392 -0.560942 28.7808 1.36314e-005 3.08957e-005 0.000965451 6.33277 -90.0123 14.1935 -0.00200485 -0.00348278 2.52251 -4.29582e-006 -0.00373155 -20.0127 0.00141709 -0.00163032 3.98875e-008 0.00140637 -0.00162502 101.177 -18.4261 -84.7088 -3.0003 26.3247 -6.77546 -6.61254 -27.5062 -9.64252 1.76661 0.106689 1.34841 -78.6512 -21.0777 94.9701 16.8246 -51.4122 -6.65983 2.561 51.1642 -7.30309 -0.929713 -0.0344773 0.669429 1.94781 -0.00246136 -0.134373 -7.46474 0.00331444 0.0723169 
4.62313 95.5999 -6.44032 -143.327 -89.9042 -143.293 -179.961 2.15938 89.9679 -8.22644 -0.33035 -0.00339394 63.0124 1.44576 0.744427 28.7808 5.44988e-006 1.52149e-006 179.937 2.1101 89.9685 -8.09746 0.0406832 -0.000942926 62.9117 -1.1044 -0.559834 28.7808 1.36314e-005 3.08957e-005 0.000224607 6.33278 -90.0031 14.1935 -0.00200485 -0.00348278 2.52251 -4.29582e-006 -0.00373155 -20.0127 0.00141709 -0.00163032 3.98875e-008 0.00140637 -0.00162502 101.102 -18.4623 -84.7537 -2.97905 26.3454 -6.73515 -6.68106 -27.4911 -9.79496 1.80106 0.113212 1.56268 -78.7038 -20.9837 94.9877 16.8598 -51.3875 -6.61544 2.58586 51.3604 -7.32266 -0.890605 -0.0344778 0.586699 1.91039 0.0231841 -0.174792 -7.44836 -0.00331924 0.108486 
4.61827 95.6096 -6.4537 -137.585 -89.9486 -137.567 -179.967 2.03692 89.9596 -7.86314 -0.292291 -0.00339392 62.8089 1.42634 0.728422 28.7808 5.44988e-006 1.52149e-006 179.933 2.20088 89.9556 -8.183 0.0462021 -0.000942927 62.9061 -1.15992 -0.592433 28.7808 1.36314e-005 3.08957e-005 -0.000430216 6.33278 -89.9948 14.1935 -0.00200485 -0.00348278 2.52251 -4.29582e-006 -0.00373155 -20.0127 0.00141709 -0.00163032 3.98875e-008 0.00140637 -0.00162502 101.163 -18.5031 -84.7414 -3.04904 26.2066 -7.15491 -6.17944 -27.4201 -8.75417 1.52757 0.0861634 0.974257 -78.6463 -20.9322 94.9778 16.8513 -51.4113 -6.66151 2.56923 51.1492 -7.32861 -0.887301 -0.0344779 0.568468 1.94216 0.0121543 -0.194953 -7.37548 0.00926285 0.154806 
4.62762 95.6029 -6.46214 -142.796 -89.943 -142.773 -179.966 2.13814 89.9539 -8.08008 -0.312364 -0.00339393 62.9035 1.45679 0.747711 28.7808 5.44988e-006 1.52149e-006 179.929 2.32898 89.9536 -8.45241 0.0211796 -0.000942926 63.0062 -1.1754 -0.602995 28.7808 1.36314e-005 3.08957e-005 -0.000505372 6.33278 -89.994 14.1935 -0.00200485 -0.00348278 2.52251 -4.29582e-006 -0.00373155 -20.0127 0.00141709 -0.00163032 3.98875e-008 0.00140637 -0.00162502 101.171 -18.5396 -84.7288 -3.06056 26.2061 -7.22857 -6.13634 -27.408 -8.66929 1.48558 0.084405 0.996222 -78.6408 -20.8476 94.9823 16.8658 -51.4118 -6.6573 2.52578 50.5906 -7.36606 -1.02137 -0.0336104 0.402478 1.98238 0.0242922 -0.231236 -7.38327 0.0158284 0.212833 
4.63295 95.628 -6.47267 -140.386 -89.9462 -140.379 -179.988 1.46464 89.9456 -6.65827 -0.272267 -0.00339392 62.2538 1.41942 0.712547 28.7808 5.44988e-006 1.52149e-006 179.936 1.90409 89.9349 -7.55009 0.0680388 -0.000942927 62.6238 -1.13621 -0.574699 28.7808 1.36314e-005 3.08957e-005 -0.00129875 6.33276 -89.9842 14.1934 -0.00200485 -0.00348278 2.52247 -4.29582e-006 -0.00373155 -20.0127 0.00141709 -0.00163032 -4.38533e-005 0.00140637 -0.00162502 101.211 -18.5735 -84.7214 -3.07538 26.3042 -7.04923 -6.39988 -27.5194 -9.20059 1.65454 0.100621 1.36099 -78.6087 -20.8135 94.9681 16.8911 -51.4423 -6.63785 2.63079 51.5699 -7.31653 -0.78841 -0.0204874 0.694573 1.97438 0.0301945 -0.22811 -7.33409 0.0177988 0.230654 
4.6428 95.6075 -6.48156 -146.985 -89.9368 -146.959 -179.971 2.2558 89.9443 -8.3113 -0.345067 -0.00339394 62.9834 1.4521 0.747683 28.7808 5.44988e-006 1.52149e-006 179.924 2.23577 89.9477 -8.25105 0.0262978 -0.000942926 62.9034 -1.14592 -0.584082 28.7808 1.36314e-005 3.08957e-005 0.000246883 6.33278 -90.0018 14.1944 -0.00200485 -0.00348278 2.52344 -4.29582e-006 -0.00373155 -20.0117 0.00141709 -0.00163032 0.000927648 0.00140637 -0.00162502 101.199 -18.5804 -84.7354 -3.07851 26.2343 -7.22348 -6.18187 -27.4533 -8.7603 1.57175 0.0912956 1.11836 -78.6079 -20.7586 94.9779 16.9504 -51.3791 -6.55476 2.54645 51.2814 -7.39355 -0.785111 -0.0187766 0.806297 1.95033 0.0335139 -0.243115 -7.29719 0.0319024 0.236092 
4.65477 95.6189 -6.49421 -137.375 -89.9497 -137.356 -179.989 2.09388 89.9241 -7.92171 -0.412778 -0.00339397 62.7782 1.43103 0.732 28.7808 5.44988e-006 1.52149e-006 179.922 2.06648 89.9328 -7.84836 0.0368864 -0.000942926 62.7179 -1.12875 -0.571233 28.7808 1.36314e-005 3.08957e-005 0.00327562 6.33278 -90.0032 14.2172 -0.00200485 -0.00322516 2.54623 -4.29582e-006 -0.00345881 -19.9889 0.00141709 -0.00149263 0.0237152 0.00140637 -0.00148777 101.136 -18.6018 -84.7256 -3.09993 26.2395 -7.20981 -6.193 -27.5385 -8.76227 1.61826 0.0945108 1.14353 -78.6946 -20.7433 94.9221 16.9538 -51.3673 -6.50314 2.5516 51.7105 -7.3001 -0.680483 -0.0150337 0.738952 1.87062 -0.00672159 -0.23979 -7.3061 0.0186164 0.221814 
4.66718 95.6052 -6.5039 -157.916 -89.9137 -157.895 -179.973 2.33619 89.9334 -8.50282 -0.29487 -0.00339392 63.0456 1.44983 0.747525 28.7808 5.44988e-006 1.52149e-006 179.914 2.30322 89.9322 -8.41093 0.0369569 -0.000942926 62.9641 -1.17137 -0.599816 28.7808 1.36314e-005 3.08957e-005 0.000119881 6.33278 -90.0026 14.1934 -0.00200485 -0.000554971 2.52248 -0.000182851 -0.000554518 -20.0127 0.00141709 -0.000601687 -3.34227e-005 0.00140637 -0.000603345 101.186 -18.6535 -84.7481 -3.07789 26.2206 -7.30164 -6.12836 -27.4926 -8.64024 1.52539 0.0965694 1.26649 -78.6018 -20.7883 95.008 16.9273 -51.3761 -6.55996 2.60107 51.6394 -7.33001 -0.780836 -0.0216335 0.5886 1.9949 0.0333132 -0.238978 -7.34388 0.0287174 0.215953 
4.67968 95.6056 -6.52067 -159.831 -89.9195 -159.807 -179.978 2.29399 89.9232 -8.38246 -0.319947 -0.00335863 62.982 1.47515 0.760642 28.7808 5.44988e-006 1.52149e-006 179.91 2.36281 89.9226 -8.50202 0.0188888 -0.000942926 62.9835 -1.18686 -0.609274 28.7808 1.36314e-005 3.08957e-005 0.00113388 6.33277 -90.0081 14.2108 -0.00205627 -0.0188084 2.53989 -0.00290549 -0.0186952 -19.9953 0.00141709 -0.018571 0.0173843 0.00140637 -0.0185722 101.116 -18.5898 -84.7659 -3.05764 26.254 -7.12996 -6.28636 -27.5527 -8.95951 1.64433 0.098236 1.27602 -78.6365 -20.9108 95.0703 16.8432 -51.357 -6.67039 2.67839 51.6933 -7.43195 -1.04603 -0.0306155 0.800393 1.93286 0.0206987 -0.169084 -7.35114 0.0383808 0.177427 
